<?xml version="1.0" encoding="UTF-8"?>
<!DOCTYPE svg PUBLIC "-//W3C//DTD SVG 1.1//EN" "http://www.w3.org/Graphics/SVG/1.1/DTD/svg11.dtd">
<!-- Creator: CorelDRAW 2020 (64-Bit) -->
<svg xmlns="http://www.w3.org/2000/svg" xml:space="preserve" width="27.8295in" height="15.9191in" version="1.1" style="shape-rendering:geometricPrecision; text-rendering:geometricPrecision; image-rendering:optimizeQuality; fill-rule:evenodd; clip-rule:evenodd"
viewBox="0 0 27504.93 15733.46"
 xmlns:xlink="http://www.w3.org/1999/xlink"
 xmlns:xodm="http://www.corel.com/coreldraw/odm/2003">
 <defs>
  <style type="text/css">
   <![CDATA[
    .fil56 {fill:#01275F;fill-rule:nonzero}
    .fil2 {fill:#166EFF;fill-rule:nonzero}
    .fil22 {fill:#2868E5;fill-rule:nonzero}
    .fil18 {fill:#B4C9FB;fill-rule:nonzero}
    .fil8 {fill:#F2F5FF;fill-rule:nonzero}
    .fil0 {fill:white;fill-rule:nonzero}
    .fil1 {fill:#166EFF;fill-rule:nonzero;fill-opacity:0.800000}
    .fil77 {fill:url(#id48);fill-rule:nonzero}
    .fil44 {fill:url(#id49);fill-rule:nonzero}
    .fil14 {fill:url(#id50);fill-rule:nonzero}
    .fil39 {fill:url(#id51);fill-rule:nonzero}
    .fil46 {fill:url(#id52);fill-rule:nonzero}
    .fil16 {fill:url(#id53);fill-rule:nonzero}
    .fil50 {fill:url(#id54);fill-rule:nonzero}
    .fil57 {fill:url(#id55);fill-rule:nonzero}
    .fil20 {fill:url(#id56);fill-rule:nonzero}
    .fil27 {fill:url(#id57);fill-rule:nonzero}
    .fil32 {fill:url(#id58);fill-rule:nonzero}
    .fil43 {fill:url(#id59);fill-rule:nonzero}
    .fil13 {fill:url(#id60);fill-rule:nonzero}
    .fil40 {fill:url(#id61);fill-rule:nonzero}
    .fil48 {fill:url(#id62);fill-rule:nonzero}
    .fil42 {fill:url(#id63);fill-rule:nonzero}
    .fil7 {fill:url(#id64);fill-rule:nonzero}
    .fil21 {fill:url(#id65);fill-rule:nonzero}
    .fil26 {fill:url(#id66);fill-rule:nonzero}
    .fil79 {fill:url(#id67);fill-rule:nonzero}
    .fil17 {fill:url(#id68);fill-rule:nonzero}
    .fil69 {fill:url(#id69);fill-rule:nonzero}
    .fil83 {fill:url(#id70);fill-rule:nonzero}
    .fil75 {fill:url(#id71);fill-rule:nonzero}
    .fil61 {fill:url(#id72);fill-rule:nonzero}
    .fil71 {fill:url(#id73);fill-rule:nonzero}
    .fil86 {fill:url(#id74);fill-rule:nonzero}
    .fil24 {fill:url(#id75);fill-rule:nonzero}
    .fil36 {fill:url(#id76);fill-rule:nonzero}
    .fil87 {fill:url(#id77);fill-rule:nonzero}
    .fil38 {fill:url(#id78);fill-rule:nonzero}
    .fil28 {fill:url(#id79);fill-rule:nonzero}
    .fil66 {fill:url(#id80);fill-rule:nonzero}
    .fil88 {fill:url(#id81);fill-rule:nonzero}
    .fil45 {fill:url(#id82);fill-rule:nonzero}
    .fil53 {fill:url(#id83);fill-rule:nonzero}
    .fil6 {fill:url(#id84);fill-rule:nonzero}
    .fil78 {fill:url(#id85);fill-rule:nonzero}
    .fil62 {fill:url(#id86);fill-rule:nonzero}
    .fil4 {fill:url(#id87);fill-rule:nonzero}
    .fil65 {fill:url(#id88);fill-rule:nonzero}
    .fil37 {fill:url(#id89);fill-rule:nonzero}
    .fil59 {fill:url(#id90);fill-rule:nonzero}
    .fil85 {fill:url(#id91);fill-rule:nonzero}
    .fil70 {fill:url(#id92);fill-rule:nonzero}
    .fil35 {fill:url(#id93);fill-rule:nonzero}
    .fil49 {fill:url(#id94);fill-rule:nonzero}
    .fil51 {fill:url(#id95);fill-rule:nonzero}
    .fil23 {fill:url(#id96);fill-rule:nonzero}
    .fil33 {fill:url(#id97);fill-rule:nonzero}
    .fil73 {fill:url(#id98);fill-rule:nonzero}
    .fil15 {fill:url(#id99);fill-rule:nonzero}
    .fil25 {fill:url(#id100);fill-rule:nonzero}
    .fil31 {fill:url(#id101);fill-rule:nonzero}
    .fil19 {fill:url(#id102);fill-rule:nonzero}
    .fil72 {fill:url(#id103);fill-rule:nonzero}
    .fil80 {fill:url(#id104);fill-rule:nonzero}
    .fil58 {fill:url(#id105);fill-rule:nonzero}
    .fil84 {fill:url(#id106);fill-rule:nonzero}
    .fil63 {fill:url(#id107);fill-rule:nonzero}
    .fil5 {fill:url(#id108);fill-rule:nonzero}
    .fil68 {fill:url(#id109);fill-rule:nonzero}
    .fil81 {fill:url(#id110);fill-rule:nonzero}
    .fil9 {fill:url(#id111);fill-rule:nonzero}
    .fil82 {fill:url(#id112);fill-rule:nonzero}
    .fil34 {fill:url(#id113);fill-rule:nonzero}
    .fil41 {fill:url(#id114);fill-rule:nonzero}
    .fil55 {fill:url(#id115);fill-rule:nonzero}
    .fil29 {fill:url(#id116);fill-rule:nonzero}
    .fil54 {fill:url(#id117);fill-rule:nonzero}
    .fil60 {fill:url(#id118);fill-rule:nonzero}
    .fil64 {fill:url(#id119);fill-rule:nonzero}
    .fil76 {fill:url(#id120);fill-rule:nonzero}
    .fil52 {fill:url(#id121);fill-rule:nonzero}
    .fil74 {fill:url(#id122);fill-rule:nonzero}
    .fil3 {fill:url(#id123);fill-rule:nonzero}
    .fil67 {fill:url(#id124);fill-rule:nonzero}
    .fil47 {fill:url(#id125);fill-rule:nonzero}
    .fil30 {fill:url(#id126);fill-rule:nonzero}
    .fil11 {fill:url(#id127);fill-rule:nonzero}
    .fil10 {fill:url(#id128);fill-rule:nonzero}
    .fil12 {fill:url(#id129);fill-rule:nonzero}
   ]]>
  </style>
   <mask id="id0">
  <linearGradient id="id1" gradientUnits="userSpaceOnUse" x1="14562.91" y1="11521.79" x2="17593.31" y2="11521.79">
   <stop offset="0" style="stop-opacity:1; stop-color:white"/>
   <stop offset="0.588235" style="stop-opacity:0.701961; stop-color:white"/>
   <stop offset="1" style="stop-opacity:0.4; stop-color:white"/>
  </linearGradient>
    <rect style="fill:url(#id1)" x="14561.43" y="10645.26" width="3033.36" height="1753.05"/>
   </mask>
   <mask id="id2">
  <linearGradient id="id3" gradientUnits="userSpaceOnUse" x1="18487.18" y1="12877.27" x2="23173.54" y2="12877.27">
   <stop offset="0" style="stop-opacity:1; stop-color:white"/>
   <stop offset="0.588235" style="stop-opacity:0.701961; stop-color:white"/>
   <stop offset="1" style="stop-opacity:0.4; stop-color:white"/>
  </linearGradient>
    <rect style="fill:url(#id3)" x="18485.69" y="11522.58" width="4689.33" height="2709.39"/>
   </mask>
   <mask id="id4">
  <linearGradient id="id5" gradientUnits="userSpaceOnUse" x1="20257.95" y1="9605.42" x2="23408.23" y2="9605.42">
   <stop offset="0" style="stop-opacity:0.4; stop-color:white"/>
   <stop offset="0.4" style="stop-opacity:0.701961; stop-color:white"/>
   <stop offset="1" style="stop-opacity:1; stop-color:white"/>
  </linearGradient>
    <rect style="fill:url(#id5)" x="20256.47" y="8764.53" width="3153.25" height="1681.78"/>
   </mask>
   <mask id="id6">
  <linearGradient id="id7" gradientUnits="userSpaceOnUse" x1="17331.07" y1="8896.1" x2="19348.82" y2="8896.1">
   <stop offset="0" style="stop-opacity:0.4; stop-color:white"/>
   <stop offset="0.4" style="stop-opacity:0.701961; stop-color:white"/>
   <stop offset="1" style="stop-opacity:1; stop-color:white"/>
  </linearGradient>
    <rect style="fill:url(#id7)" x="17329.59" y="8311.98" width="2020.72" height="1168.24"/>
   </mask>
   <mask id="id8">
  <linearGradient id="id9" gradientUnits="userSpaceOnUse" x1="24592.45" y1="12342.85" x2="25225.11" y2="12342.85">
   <stop offset="0" style="stop-opacity:0.4; stop-color:white"/>
   <stop offset="0.4" style="stop-opacity:0.701961; stop-color:white"/>
   <stop offset="1" style="stop-opacity:1; stop-color:white"/>
  </linearGradient>
    <rect style="fill:url(#id9)" x="24590.97" y="12148.9" width="635.63" height="387.91"/>
   </mask>
   <mask id="id10">
  <linearGradient id="id11" gradientUnits="userSpaceOnUse" x1="25117.64" y1="12043.49" x2="25750.31" y2="12043.49">
   <stop offset="0" style="stop-opacity:0.4; stop-color:white"/>
   <stop offset="0.4" style="stop-opacity:0.701961; stop-color:white"/>
   <stop offset="1" style="stop-opacity:1; stop-color:white"/>
  </linearGradient>
    <rect style="fill:url(#id11)" x="25116.16" y="11849.53" width="635.63" height="387.91"/>
   </mask>
   <mask id="id12">
  <linearGradient id="id13" gradientUnits="userSpaceOnUse" x1="25650.32" y1="11733" x2="26282.98" y2="11733">
   <stop offset="0" style="stop-opacity:0.4; stop-color:white"/>
   <stop offset="0.4" style="stop-opacity:0.701961; stop-color:white"/>
   <stop offset="1" style="stop-opacity:1; stop-color:white"/>
  </linearGradient>
    <rect style="fill:url(#id13)" x="25648.83" y="11539.05" width="635.63" height="387.91"/>
   </mask>
   <mask id="id14">
  <linearGradient id="id15" gradientUnits="userSpaceOnUse" x1="23889.58" y1="11946.21" x2="24522.24" y2="11946.21">
   <stop offset="0" style="stop-opacity:0.4; stop-color:white"/>
   <stop offset="0.4" style="stop-opacity:0.701961; stop-color:white"/>
   <stop offset="1" style="stop-opacity:1; stop-color:white"/>
  </linearGradient>
    <rect style="fill:url(#id15)" x="23888.1" y="11752.26" width="635.63" height="387.91"/>
   </mask>
   <mask id="id16">
  <linearGradient id="id17" gradientUnits="userSpaceOnUse" x1="24414.78" y1="11646.85" x2="25047.44" y2="11646.85">
   <stop offset="0" style="stop-opacity:0.4; stop-color:white"/>
   <stop offset="0.4" style="stop-opacity:0.701961; stop-color:white"/>
   <stop offset="1" style="stop-opacity:1; stop-color:white"/>
  </linearGradient>
    <rect style="fill:url(#id17)" x="24413.29" y="11452.9" width="635.63" height="387.91"/>
   </mask>
   <mask id="id18">
  <linearGradient id="id19" gradientUnits="userSpaceOnUse" x1="23724.39" y1="11218.97" x2="24357.05" y2="11218.97">
   <stop offset="0" style="stop-opacity:0.4; stop-color:white"/>
   <stop offset="0.4" style="stop-opacity:0.701961; stop-color:white"/>
   <stop offset="1" style="stop-opacity:1; stop-color:white"/>
  </linearGradient>
    <rect style="fill:url(#id19)" x="23722.9" y="11025.01" width="635.63" height="387.91"/>
   </mask>
   <mask id="id20">
  <linearGradient id="id21" gradientUnits="userSpaceOnUse" x1="24249.58" y1="10919.6" x2="24882.25" y2="10919.6">
   <stop offset="0" style="stop-opacity:0.4; stop-color:white"/>
   <stop offset="0.4" style="stop-opacity:0.701961; stop-color:white"/>
   <stop offset="1" style="stop-opacity:1; stop-color:white"/>
  </linearGradient>
    <rect style="fill:url(#id21)" x="24248.1" y="10725.65" width="635.63" height="387.91"/>
   </mask>
   <mask id="id22">
  <linearGradient id="id23" gradientUnits="userSpaceOnUse" x1="24782.26" y1="10609.12" x2="25414.92" y2="10609.12">
   <stop offset="0" style="stop-opacity:0.4; stop-color:white"/>
   <stop offset="0.4" style="stop-opacity:0.701961; stop-color:white"/>
   <stop offset="1" style="stop-opacity:1; stop-color:white"/>
  </linearGradient>
    <rect style="fill:url(#id23)" x="24780.77" y="10415.17" width="635.63" height="387.91"/>
   </mask>
   <mask id="id24">
  <linearGradient id="id25" gradientUnits="userSpaceOnUse" x1="25307.45" y1="10309.76" x2="25940.12" y2="10309.76">
   <stop offset="0" style="stop-opacity:0.4; stop-color:white"/>
   <stop offset="0.4" style="stop-opacity:0.701961; stop-color:white"/>
   <stop offset="1" style="stop-opacity:1; stop-color:white"/>
  </linearGradient>
    <rect style="fill:url(#id25)" x="25305.97" y="10115.81" width="635.63" height="387.91"/>
   </mask>
   <mask id="id26">
  <linearGradient id="id27" gradientUnits="userSpaceOnUse" x1="23004.75" y1="10827.82" x2="23637.42" y2="10827.82">
   <stop offset="0" style="stop-opacity:0.4; stop-color:white"/>
   <stop offset="0.4" style="stop-opacity:0.701961; stop-color:white"/>
   <stop offset="1" style="stop-opacity:1; stop-color:white"/>
  </linearGradient>
    <rect style="fill:url(#id27)" x="23003.26" y="10633.87" width="635.63" height="387.91"/>
   </mask>
   <mask id="id28">
  <linearGradient id="id29" gradientUnits="userSpaceOnUse" x1="23529.94" y1="10528.46" x2="24162.61" y2="10528.46">
   <stop offset="0" style="stop-opacity:0.4; stop-color:white"/>
   <stop offset="0.4" style="stop-opacity:0.701961; stop-color:white"/>
   <stop offset="1" style="stop-opacity:1; stop-color:white"/>
  </linearGradient>
    <rect style="fill:url(#id29)" x="23528.46" y="10334.5" width="635.63" height="387.91"/>
   </mask>
   <mask id="id30">
  <linearGradient id="id31" gradientUnits="userSpaceOnUse" x1="18578.57" y1="10350.69" x2="18707.82" y2="10350.69">
   <stop offset="0" style="stop-opacity:1; stop-color:white"/>
   <stop offset="0.290196" style="stop-opacity:1; stop-color:white"/>
   <stop offset="1" style="stop-opacity:0.4; stop-color:white"/>
  </linearGradient>
    <rect style="fill:url(#id31)" x="18577.09" y="10262.49" width="132.22" height="176.39"/>
   </mask>
   <mask id="id32">
  <linearGradient id="id33" gradientUnits="userSpaceOnUse" x1="18126.52" y1="10505.99" x2="18371.2" y2="10505.99">
   <stop offset="0" style="stop-opacity:1; stop-color:white"/>
   <stop offset="0.290196" style="stop-opacity:1; stop-color:white"/>
   <stop offset="1" style="stop-opacity:0.4; stop-color:white"/>
  </linearGradient>
    <rect style="fill:url(#id33)" x="18125.04" y="10124.5" width="247.65" height="762.98"/>
   </mask>
   <mask id="id34">
  <linearGradient id="id35" gradientUnits="userSpaceOnUse" x1="18829.39" y1="10023.09" x2="18891.23" y2="10023.09">
   <stop offset="0" style="stop-opacity:0.4; stop-color:white"/>
   <stop offset="0.701961" style="stop-opacity:0.4; stop-color:white"/>
   <stop offset="0.988235" style="stop-opacity:1; stop-color:white"/>
   <stop offset="1" style="stop-opacity:0.4; stop-color:white"/>
  </linearGradient>
    <rect style="fill:url(#id35)" x="18827.91" y="9972.66" width="64.8" height="100.87"/>
   </mask>
   <mask id="id36">
  <linearGradient id="id37" gradientUnits="userSpaceOnUse" x1="17832.39" y1="7529.94" x2="17881.18" y2="7529.94">
   <stop offset="0" style="stop-opacity:0.4; stop-color:white"/>
   <stop offset="0.701961" style="stop-opacity:0.4; stop-color:white"/>
   <stop offset="0.988235" style="stop-opacity:1; stop-color:white"/>
   <stop offset="1" style="stop-opacity:0.4; stop-color:white"/>
  </linearGradient>
    <rect style="fill:url(#id37)" x="17830.91" y="6517.35" width="51.76" height="2025.17"/>
   </mask>
   <mask id="id38">
  <linearGradient id="id39" gradientUnits="userSpaceOnUse" x1="18037.35" y1="6375.92" x2="17676.23" y2="6375.92">
   <stop offset="0" style="stop-opacity:0.4; stop-color:white"/>
   <stop offset="0.701961" style="stop-opacity:0.4; stop-color:white"/>
   <stop offset="0.988235" style="stop-opacity:1; stop-color:white"/>
   <stop offset="1" style="stop-opacity:0.4; stop-color:white"/>
  </linearGradient>
    <rect style="fill:url(#id39)" x="17674.75" y="6193.88" width="364.08" height="364.08"/>
   </mask>
   <mask id="id40">
  <linearGradient id="id41" gradientUnits="userSpaceOnUse" x1="26791.96" y1="9092.05" x2="26840.76" y2="9092.05">
   <stop offset="0" style="stop-opacity:0.4; stop-color:white"/>
   <stop offset="0.701961" style="stop-opacity:0.4; stop-color:white"/>
   <stop offset="0.988235" style="stop-opacity:1; stop-color:white"/>
   <stop offset="1" style="stop-opacity:0.4; stop-color:white"/>
  </linearGradient>
    <rect style="fill:url(#id41)" x="26790.48" y="7278.61" width="51.76" height="3626.89"/>
   </mask>
   <mask id="id42">
  <linearGradient id="id43" gradientUnits="userSpaceOnUse" x1="26996.92" y1="7137.17" x2="26635.8" y2="7137.17">
   <stop offset="0" style="stop-opacity:0.4; stop-color:white"/>
   <stop offset="0.701961" style="stop-opacity:0.4; stop-color:white"/>
   <stop offset="0.988235" style="stop-opacity:1; stop-color:white"/>
   <stop offset="1" style="stop-opacity:0.4; stop-color:white"/>
  </linearGradient>
    <rect style="fill:url(#id43)" x="26634.32" y="6955.13" width="364.08" height="364.08"/>
   </mask>
   <mask id="id44">
  <linearGradient id="id45" gradientUnits="userSpaceOnUse" x1="17568.91" y1="12498.19" x2="17617.7" y2="12498.19">
   <stop offset="0" style="stop-opacity:0.4; stop-color:white"/>
   <stop offset="0.701961" style="stop-opacity:0.4; stop-color:white"/>
   <stop offset="0.988235" style="stop-opacity:1; stop-color:white"/>
   <stop offset="1" style="stop-opacity:0.4; stop-color:white"/>
  </linearGradient>
    <rect style="fill:url(#id45)" x="17567.43" y="11485.6" width="51.76" height="2025.17"/>
   </mask>
   <mask id="id46">
  <linearGradient id="id47" gradientUnits="userSpaceOnUse" x1="17773.86" y1="11344.17" x2="17412.75" y2="11344.17">
   <stop offset="0" style="stop-opacity:0.4; stop-color:white"/>
   <stop offset="0.701961" style="stop-opacity:0.4; stop-color:white"/>
   <stop offset="0.988235" style="stop-opacity:1; stop-color:white"/>
   <stop offset="1" style="stop-opacity:0.4; stop-color:white"/>
  </linearGradient>
    <rect style="fill:url(#id47)" x="17411.27" y="11162.13" width="364.08" height="364.08"/>
   </mask>
  <linearGradient id="id48" gradientUnits="userSpaceOnUse" x1="18126.52" y1="10317.87" x2="19080.26" y2="10317.87">
   <stop offset="0" style="stop-opacity:1; stop-color:#E8EEFF"/>
   <stop offset="1" style="stop-opacity:1; stop-color:#D4E3FF"/>
  </linearGradient>
  <linearGradient id="id49" gradientUnits="userSpaceOnUse" x1="25650.32" y1="11733" x2="26282.98" y2="11733">
   <stop offset="0" style="stop-opacity:1; stop-color:white"/>
   <stop offset="0.4" style="stop-opacity:1; stop-color:#F4F7FF"/>
   <stop offset="1" style="stop-opacity:1; stop-color:#E8EEFF"/>
  </linearGradient>
  <linearGradient id="id50" gradientUnits="userSpaceOnUse" x1="19035.27" y1="6141.56" x2="21617.82" y2="6141.56">
   <stop offset="0" style="stop-opacity:1; stop-color:#E8F0FF"/>
   <stop offset="1" style="stop-opacity:1; stop-color:#D4E0FF"/>
  </linearGradient>
  <linearGradient id="id51" gradientUnits="userSpaceOnUse" x1="22995.03" y1="12336.45" x2="24062.34" y2="12336.45">
   <stop offset="0" style="stop-opacity:1; stop-color:#E8F0FF"/>
   <stop offset="1" style="stop-opacity:1; stop-color:#AAC9FF"/>
  </linearGradient>
  <linearGradient id="id52" gradientUnits="userSpaceOnUse" xlink:href="#id49" x1="24414.78" y1="11646.85" x2="25047.44" y2="11646.85">
  </linearGradient>
  <linearGradient id="id53" gradientUnits="userSpaceOnUse" x1="21617.91" y1="6141.56" x2="22909.11" y2="6141.56">
   <stop offset="0" style="stop-opacity:1; stop-color:#AAC9FF"/>
   <stop offset="1" style="stop-opacity:1; stop-color:#E8F0FF"/>
  </linearGradient>
  <linearGradient id="id54" gradientUnits="userSpaceOnUse" xlink:href="#id49" x1="25307.45" y1="10309.76" x2="25940.12" y2="10309.76">
  </linearGradient>
  <linearGradient id="id55" gradientUnits="userSpaceOnUse" x1="16928.67" y1="10975.68" x2="16714.13" y2="10975.68">
   <stop offset="0" style="stop-opacity:1; stop-color:#FF7F82"/>
   <stop offset="1" style="stop-opacity:1; stop-color:#FFD4D5"/>
  </linearGradient>
  <linearGradient id="id56" gradientUnits="userSpaceOnUse" x1="21506.85" y1="7431.29" x2="22280.41" y2="7431.29">
   <stop offset="0" style="stop-opacity:1; stop-color:#6AAEFF"/>
   <stop offset="1" style="stop-opacity:1; stop-color:#005DFF"/>
  </linearGradient>
  <linearGradient id="id57" gradientUnits="userSpaceOnUse" xlink:href="#id56" x1="23771.03" y1="8707.63" x2="25773.88" y2="8707.63">
  </linearGradient>
  <linearGradient id="id58" gradientUnits="userSpaceOnUse" xlink:href="#id50" x1="24771.43" y1="8705.73" x2="25772.83" y2="8705.73">
  </linearGradient>
  <linearGradient id="id59" gradientUnits="userSpaceOnUse" xlink:href="#id49" x1="25117.64" y1="12043.49" x2="25750.31" y2="12043.49">
  </linearGradient>
  <linearGradient id="id60" gradientUnits="userSpaceOnUse" xlink:href="#id53" x1="18605.84" y1="5609.92" x2="21617.91" y2="5609.92">
  </linearGradient>
  <linearGradient id="id61" gradientUnits="userSpaceOnUse" xlink:href="#id51" x1="23346.92" y1="11460.79" x2="23892.62" y2="11460.79">
  </linearGradient>
  <linearGradient id="id62" gradientUnits="userSpaceOnUse" xlink:href="#id49" x1="24249.58" y1="10919.6" x2="24882.25" y2="10919.6">
  </linearGradient>
  <linearGradient id="id63" gradientUnits="userSpaceOnUse" xlink:href="#id49" x1="24592.45" y1="12342.85" x2="25225.11" y2="12342.85">
  </linearGradient>
  <linearGradient id="id64" gradientUnits="userSpaceOnUse" xlink:href="#id56" x1="13772.58" y1="7974.11" x2="17125.24" y2="7974.11">
  </linearGradient>
  <linearGradient id="id65" gradientUnits="userSpaceOnUse" x1="22200.94" y1="2706.99" x2="23071.39" y2="2706.99">
   <stop offset="0" style="stop-opacity:1; stop-color:#3F80FF"/>
   <stop offset="1" style="stop-opacity:1; stop-color:#6AAEFF"/>
  </linearGradient>
  <linearGradient id="id66" gradientUnits="userSpaceOnUse" xlink:href="#id56" x1="18605.17" y1="7881.35" x2="19896.2" y2="7881.35">
  </linearGradient>
  <linearGradient id="id67" gradientUnits="userSpaceOnUse" x1="18578.57" y1="10350.69" x2="18707.82" y2="10350.69">
   <stop offset="0" style="stop-opacity:1; stop-color:#93B8FF"/>
   <stop offset="0.290196" style="stop-opacity:1; stop-color:#93B8FF"/>
   <stop offset="1" style="stop-opacity:1; stop-color:#E8F1FF"/>
  </linearGradient>
  <linearGradient id="id68" gradientUnits="userSpaceOnUse" xlink:href="#id50" x1="20111.34" y1="7011.57" x2="22693.88" y2="7011.57">
  </linearGradient>
  <linearGradient id="id69" gradientUnits="userSpaceOnUse" x1="18580.49" y1="12498.53" x2="18916.15" y2="12498.53">
   <stop offset="0" style="stop-opacity:1; stop-color:#002154"/>
   <stop offset="1" style="stop-opacity:1; stop-color:#003A7F"/>
  </linearGradient>
  <linearGradient id="id70" gradientUnits="userSpaceOnUse" x1="17832.39" y1="7529.94" x2="17881.18" y2="7529.94">
   <stop offset="0" style="stop-opacity:1; stop-color:#E8F1FF"/>
   <stop offset="0.701961" style="stop-opacity:1; stop-color:#93B8FF"/>
   <stop offset="0.988235" style="stop-opacity:1; stop-color:#93B8FF"/>
   <stop offset="1" style="stop-opacity:1; stop-color:#93B8FF"/>
  </linearGradient>
  <linearGradient id="id71" gradientUnits="userSpaceOnUse" xlink:href="#id55" x1="18389.81" y1="9515.72" x2="18666.65" y2="9515.72">
  </linearGradient>
  <linearGradient id="id72" gradientUnits="userSpaceOnUse" xlink:href="#id48" x1="17253.25" y1="8974.82" x2="17051.37" y2="8974.82">
  </linearGradient>
  <linearGradient id="id73" gradientUnits="userSpaceOnUse" xlink:href="#id55" x1="18477.13" y1="11887.8" x2="18683.85" y2="11887.8">
  </linearGradient>
  <linearGradient id="id74" gradientUnits="userSpaceOnUse" xlink:href="#id70" x1="26996.92" y1="7137.17" x2="26635.8" y2="7137.17">
  </linearGradient>
  <linearGradient id="id75" gradientUnits="userSpaceOnUse" x1="17744" y1="4170.11" x2="18844.94" y2="4170.11">
   <stop offset="0" style="stop-opacity:1; stop-color:#D4E0FF"/>
   <stop offset="1" style="stop-opacity:1; stop-color:#E8F0FF"/>
  </linearGradient>
  <linearGradient id="id76" gradientUnits="userSpaceOnUse" xlink:href="#id53" x1="20326.83" y1="12546.24" x2="24905.03" y2="12546.24">
  </linearGradient>
  <linearGradient id="id77" gradientUnits="userSpaceOnUse" xlink:href="#id70" x1="17568.91" y1="12498.19" x2="17617.7" y2="12498.19">
  </linearGradient>
  <linearGradient id="id78" gradientUnits="userSpaceOnUse" xlink:href="#id51" x1="24067.41" y1="12640.97" x2="24773.13" y2="12640.97">
  </linearGradient>
  <linearGradient id="id79" gradientUnits="userSpaceOnUse" xlink:href="#id50" x1="23771.03" y1="9140.96" x2="24772.47" y2="9140.96">
  </linearGradient>
  <linearGradient id="id80" gradientUnits="userSpaceOnUse" xlink:href="#id48" x1="16896.56" y1="9095.18" x2="16648.24" y2="9095.18">
  </linearGradient>
  <linearGradient id="id81" gradientUnits="userSpaceOnUse" xlink:href="#id70" x1="17773.86" y1="11344.17" x2="17412.75" y2="11344.17">
  </linearGradient>
  <linearGradient id="id82" gradientUnits="userSpaceOnUse" xlink:href="#id49" x1="23889.58" y1="11946.21" x2="24522.24" y2="11946.21">
  </linearGradient>
  <linearGradient id="id83" gradientUnits="userSpaceOnUse" xlink:href="#id56" x1="20326.83" y1="13252.01" x2="23144.09" y2="13252.01">
  </linearGradient>
  <linearGradient id="id84" gradientUnits="userSpaceOnUse" xlink:href="#id49" x1="17331.07" y1="8896.1" x2="19348.82" y2="8896.1">
  </linearGradient>
  <linearGradient id="id85" gradientUnits="userSpaceOnUse" xlink:href="#id56" x1="18537.21" y1="10647.17" x2="18686.82" y2="10647.17">
  </linearGradient>
  <linearGradient id="id86" gradientUnits="userSpaceOnUse" xlink:href="#id48" x1="17226.05" y1="9413.22" x2="16603.57" y2="9413.22">
  </linearGradient>
  <linearGradient id="id87" gradientUnits="userSpaceOnUse" x1="18487.18" y1="12877.27" x2="23173.54" y2="12877.27">
   <stop offset="0" style="stop-opacity:1; stop-color:#E8EEFF"/>
   <stop offset="0.588235" style="stop-opacity:1; stop-color:#F3F6FF"/>
   <stop offset="1" style="stop-opacity:1; stop-color:white"/>
  </linearGradient>
  <linearGradient id="id88" gradientUnits="userSpaceOnUse" xlink:href="#id55" x1="17131.23" y1="8669.84" x2="16882.03" y2="8669.84">
  </linearGradient>
  <linearGradient id="id89" gradientUnits="userSpaceOnUse" x1="23144.09" y1="12343.34" x2="25081.13" y2="12343.34">
   <stop offset="0" style="stop-opacity:1; stop-color:#F129FF"/>
   <stop offset="1" style="stop-opacity:1; stop-color:#6C00E8"/>
  </linearGradient>
  <linearGradient id="id90" gradientUnits="userSpaceOnUse" xlink:href="#id89" x1="16603.58" y1="10141.75" x2="17266.81" y2="10141.75">
  </linearGradient>
  <linearGradient id="id91" gradientUnits="userSpaceOnUse" xlink:href="#id70" x1="26791.96" y1="9092.05" x2="26840.76" y2="9092.05">
  </linearGradient>
  <linearGradient id="id92" gradientUnits="userSpaceOnUse" xlink:href="#id69" x1="18343.87" y1="12441.41" x2="18676.28" y2="12441.41">
  </linearGradient>
  <linearGradient id="id93" gradientUnits="userSpaceOnUse" xlink:href="#id50" x1="24771.39" y1="8272.43" x2="25772.8" y2="8272.43">
  </linearGradient>
  <linearGradient id="id94" gradientUnits="userSpaceOnUse" xlink:href="#id49" x1="24782.26" y1="10609.12" x2="25414.92" y2="10609.12">
  </linearGradient>
  <linearGradient id="id95" gradientUnits="userSpaceOnUse" xlink:href="#id49" x1="23004.75" y1="10827.82" x2="23637.42" y2="10827.82">
  </linearGradient>
  <linearGradient id="id96" gradientUnits="userSpaceOnUse" xlink:href="#id75" x1="20919.66" y1="2375.35" x2="21442.59" y2="2375.35">
  </linearGradient>
  <linearGradient id="id97" gradientUnits="userSpaceOnUse" x1="23769.94" y1="7839.41" x2="25772.8" y2="7839.41">
   <stop offset="0" style="stop-opacity:1; stop-color:#FF0007"/>
   <stop offset="1" style="stop-opacity:1; stop-color:#FFAAAC"/>
  </linearGradient>
  <linearGradient id="id98" gradientUnits="userSpaceOnUse" xlink:href="#id56" x1="18160.3" y1="11113.97" x2="18799.82" y2="11113.97">
  </linearGradient>
  <linearGradient id="id99" gradientUnits="userSpaceOnUse" xlink:href="#id75" x1="19465.97" y1="6638.95" x2="22048.52" y2="6638.95">
  </linearGradient>
  <linearGradient id="id100" gradientUnits="userSpaceOnUse" xlink:href="#id65" x1="19128.04" y1="3120.6" x2="19627.05" y2="3120.6">
  </linearGradient>
  <linearGradient id="id101" gradientUnits="userSpaceOnUse" xlink:href="#id50" x1="23769.98" y1="8706.04" x2="24771.43" y2="8706.04">
  </linearGradient>
  <linearGradient id="id102" gradientUnits="userSpaceOnUse" xlink:href="#id89" x1="20954.27" y1="8069.58" x2="22281.36" y2="8069.58">
  </linearGradient>
  <linearGradient id="id103" gradientUnits="userSpaceOnUse" xlink:href="#id55" x1="18246.89" y1="11844.82" x2="18451.6" y2="11844.82">
  </linearGradient>
  <linearGradient id="id104" gradientUnits="userSpaceOnUse" xlink:href="#id67" x1="18126.52" y1="10505.99" x2="18371.2" y2="10505.99">
  </linearGradient>
  <linearGradient id="id105" gradientUnits="userSpaceOnUse" xlink:href="#id55" x1="17163.93" y1="10863.05" x2="16949.39" y2="10863.05">
  </linearGradient>
  <linearGradient id="id106" gradientUnits="userSpaceOnUse" xlink:href="#id70" x1="18037.35" y1="6375.92" x2="17676.23" y2="6375.92">
  </linearGradient>
  <linearGradient id="id107" gradientUnits="userSpaceOnUse" xlink:href="#id55" x1="17023.3" y1="9432.18" x2="16629.41" y2="9432.18">
  </linearGradient>
  <linearGradient id="id108" gradientUnits="userSpaceOnUse" xlink:href="#id49" x1="20257.95" y1="9605.42" x2="23408.23" y2="9605.42">
  </linearGradient>
  <linearGradient id="id109" gradientUnits="userSpaceOnUse" xlink:href="#id89" x1="16867.85" y1="9516.11" x2="16594.19" y2="9516.11">
  </linearGradient>
  <linearGradient id="id110" gradientUnits="userSpaceOnUse" xlink:href="#id70" x1="18829.39" y1="10023.09" x2="18891.23" y2="10023.09">
  </linearGradient>
  <linearGradient id="id111" gradientUnits="userSpaceOnUse" x1="14545.27" y1="7164.47" x2="14546.02" y2="9324.7">
   <stop offset="0" style="stop-opacity:1; stop-color:#004DAA"/>
   <stop offset="1" style="stop-opacity:1; stop-color:#00266A"/>
  </linearGradient>
  <linearGradient id="id112" gradientUnits="userSpaceOnUse" x1="18164.72" y1="10904.01" x2="18584.73" y2="10904.01">
   <stop offset="0" style="stop-opacity:1; stop-color:#6AAEFF"/>
   <stop offset="1" style="stop-opacity:1; stop-color:#002193"/>
  </linearGradient>
  <linearGradient id="id113" gradientUnits="userSpaceOnUse" xlink:href="#id50" x1="23769.94" y1="8272.74" x2="24771.39" y2="8272.74">
  </linearGradient>
  <linearGradient id="id114" gradientUnits="userSpaceOnUse" xlink:href="#id51" x1="22466.67" y1="11129.55" x2="23188.18" y2="11129.55">
  </linearGradient>
  <linearGradient id="id115" gradientUnits="userSpaceOnUse" xlink:href="#id89" x1="24905.03" y1="12997.83" x2="25081.13" y2="12997.83">
  </linearGradient>
  <linearGradient id="id116" gradientUnits="userSpaceOnUse" xlink:href="#id50" x1="24772.47" y1="9140.66" x2="25773.88" y2="9140.66">
  </linearGradient>
  <linearGradient id="id117" gradientUnits="userSpaceOnUse" xlink:href="#id56" x1="23144.09" y1="13557" x2="24905.03" y2="13557">
  </linearGradient>
  <linearGradient id="id118" gradientUnits="userSpaceOnUse" xlink:href="#id55" x1="18013.6" y1="8827.57" x2="17218.67" y2="8827.57">
  </linearGradient>
  <linearGradient id="id119" gradientUnits="userSpaceOnUse" xlink:href="#id55" x1="17012.24" y1="8866.6" x2="16868.15" y2="8866.6">
  </linearGradient>
  <linearGradient id="id120" gradientUnits="userSpaceOnUse" xlink:href="#id55" x1="19025.43" y1="9676" x2="19167.68" y2="9676">
  </linearGradient>
  <linearGradient id="id121" gradientUnits="userSpaceOnUse" xlink:href="#id49" x1="23529.94" y1="10528.46" x2="24162.61" y2="10528.46">
  </linearGradient>
  <linearGradient id="id122" gradientUnits="userSpaceOnUse" x1="18044" y1="10144.44" x2="18342.11" y2="10144.44">
   <stop offset="0" style="stop-opacity:1; stop-color:#D4E3FF"/>
   <stop offset="1" style="stop-opacity:1; stop-color:#E8EEFF"/>
  </linearGradient>
  <linearGradient id="id123" gradientUnits="userSpaceOnUse" xlink:href="#id87" x1="14562.91" y1="11521.79" x2="17593.31" y2="11521.79">
  </linearGradient>
  <linearGradient id="id124" gradientUnits="userSpaceOnUse" xlink:href="#id89" x1="17058.47" y1="9357.66" x2="16759.82" y2="9357.66">
  </linearGradient>
  <linearGradient id="id125" gradientUnits="userSpaceOnUse" xlink:href="#id49" x1="23724.39" y1="11218.97" x2="24357.05" y2="11218.97">
  </linearGradient>
  <linearGradient id="id126" gradientUnits="userSpaceOnUse" xlink:href="#id89" x1="23769.98" y1="8272.71" x2="25772.83" y2="8272.71">
  </linearGradient>
  <linearGradient id="id127" gradientUnits="userSpaceOnUse" xlink:href="#id56" x1="15849.77" y1="7492.44" x2="15901.93" y2="8812.76">
  </linearGradient>
  <linearGradient id="id128" gradientUnits="userSpaceOnUse" xlink:href="#id89" x1="15212.1" y1="6297.39" x2="15201.41" y2="9109.3">
  </linearGradient>
  <linearGradient id="id129" gradientUnits="userSpaceOnUse" xlink:href="#id97" x1="16521.66" y1="7651.14" x2="16549.58" y2="8352.55">
  </linearGradient>
 </defs>
 <g id="Layer_x0020_1">
  <metadata id="CorelCorpID_0Corel-Layer"/>
  <polygon class="fil0" points="27504.93,15733.46 41.98,15733.46 41.98,0 27504.93,0 "/>
  <path class="fil1" d="M27455.57 6007.9c-827.9,1905.74 -2722.41,1000.51 -4328.62,524.08 -2035.71,-603.85 -3804.82,-2528.87 -6713.13,-619.37 -1523.85,1000.52 -1729.75,1238.73 -4189.25,1572.24 -2134.11,289.38 -1287.17,2069.05 -2729.81,2568.39 -1499.67,519.09 -5609.86,-751.2 -6721.23,-912.83 -1114.94,-162.14 -2259.12,100.35 -2773.53,941.05l0 -10030.33 27455.57 0.01 0 5956.76z"/>
  <path class="fil2" d="M1720.82 12305.35l44.6 -222.98 356.77 0 44.6 222.98 63.71 0 -222.98 -1114.91 -127.42 0 -222.98 1114.91 63.71 0zm58.93 -286.69l154.5 -764.51 19.11 0 154.49 764.51 -328.1 0z"/>
  <path id="1" class="fil2" d="M2405.69 11190.44l-111.49 0 0 1114.91 63.71 0 0 -222.98 47.78 0c49.9,0 96.89,-8.49 140.95,-25.48 44.06,-16.99 82.82,-43.27 116.27,-78.84 33.45,-35.57 59.99,-81.5 79.64,-137.77 19.64,-56.28 29.46,-124.23 29.46,-203.87 0,-79.64 -9.82,-147.86 -29.46,-204.66 -19.65,-56.81 -46.19,-102.99 -79.64,-138.57 -33.44,-35.57 -72.2,-61.58 -116.27,-78.04 -44.07,-16.46 -91.05,-24.69 -140.95,-24.69zm0 828.22l-47.78 0 0 -764.51 47.78 0c39.28,0 77.25,6.37 113.88,19.11 36.63,12.74 68.75,33.98 96.36,63.71 27.61,29.73 49.91,69.02 66.9,117.86 16.99,48.84 25.48,109.37 25.48,181.57 0,71.14 -8.49,131.14 -25.48,179.98 -16.99,48.84 -39.29,88.13 -66.9,117.86 -27.61,29.73 -59.72,51.23 -96.36,64.51 -36.63,13.27 -74.59,19.91 -113.88,19.91z"/>
  <polygon id="2" class="fil2" points="2851.65,11190.44 2851.65,12305.35 3329.47,12305.35 3329.47,12241.64 2915.36,12241.64 2915.36,11190.44 "/>
  <polygon id="3" class="fil2" points="3393.18,12305.35 3456.89,12305.35 3456.89,11190.44 3393.18,11190.44 "/>
  <polygon id="4" class="fil2" points="3616.17,12305.35 3616.17,11776.56 3992.04,12305.35 4073.28,12305.35 3675.1,11747.89 4073.28,11190.44 3992.04,11190.44 3616.17,11719.23 3616.17,11190.44 3552.46,11190.44 3552.46,12305.35 "/>
  <path id="5" class="fil2" d="M4184.77 12305.35l44.6 -222.98 356.77 0 44.6 222.98 63.71 0 -222.98 -1114.91 -127.42 0 -222.98 1114.91 63.71 0zm58.93 -286.69l154.5 -764.51 19.11 0 154.49 764.51 -328.1 0z"/>
  <path id="6" class="fil2" d="M5188.19 12026.62c0,76.45 -16.46,134.06 -49.38,172.81 -32.91,38.76 -78.57,58.13 -136.97,58.13 -70.08,0 -120.25,-23.89 -150.51,-71.67 -30.26,-47.78 -45.39,-124.76 -45.39,-230.95l-63.71 0c0,61.59 5.31,115.48 15.93,161.66 10.62,46.19 26.28,84.41 46.98,114.67 20.7,30.26 47.25,52.83 79.64,67.69 32.39,14.86 69.81,22.3 112.29,22.3 40.35,0 76.18,-6.63 107.51,-19.91 31.32,-13.27 57.87,-32.65 79.64,-58.14 21.77,-25.48 38.49,-56.54 50.17,-93.17 11.68,-36.63 17.52,-77.78 17.52,-123.44 0,-40.35 -7.44,-75.92 -22.3,-106.71 -14.86,-30.79 -34.25,-58.13 -58.13,-82.02 -23.89,-23.89 -50.7,-45.13 -80.43,-63.71 -29.73,-18.58 -59.99,-36.37 -90.79,-53.35 -25.48,-14.87 -49.9,-30.26 -73.27,-46.19 -23.36,-15.93 -44.06,-33.98 -62.11,-54.15 -18.05,-20.18 -32.39,-42.47 -43,-66.89 -10.62,-24.42 -15.93,-52.56 -15.93,-84.42 0,-74.32 16.46,-131.4 49.37,-171.22 32.91,-39.82 79.1,-59.73 138.57,-59.73 69.02,0 118.66,23.89 148.92,71.67 30.26,47.78 45.39,124.76 45.39,230.94l63.71 0c0,-61.58 -5.31,-115.47 -15.93,-161.66 -10.62,-46.19 -26.28,-84.42 -46.98,-114.68 -20.7,-30.26 -47.25,-52.83 -79.64,-67.69 -32.39,-14.87 -69.81,-22.3 -112.29,-22.3 -40.35,0 -76.19,6.64 -107.51,19.91 -31.32,13.27 -57.87,32.65 -79.64,58.13 -21.77,25.48 -38.49,56.28 -50.17,92.38 -11.68,36.1 -17.52,77.51 -17.52,124.23 0,41.41 6.63,77.78 19.91,109.1 13.27,31.32 30.53,59.2 51.76,83.62 21.24,24.42 45.66,45.92 73.27,64.5 27.61,18.58 55.74,35.84 84.41,51.76 26.55,14.87 53.09,30.26 79.64,46.19 26.55,15.93 49.9,33.71 70.08,53.35 20.18,19.65 36.37,41.41 48.58,65.3 12.21,23.89 18.32,51.76 18.32,83.62z"/>
  <polygon id="7" class="fil2" points="5331.53,12305.35 5395.24,12305.35 5395.24,11190.44 5331.53,11190.44 "/>
  <path id="8" class="fil2" d="M5920.84 11190.44l-111.49 0 0 1114.91 63.71 0 0 -222.98 47.78 0c49.9,0 96.89,-8.49 140.95,-25.48 44.06,-16.99 82.82,-43.27 116.27,-78.84 33.45,-35.57 59.99,-81.5 79.64,-137.77 19.64,-56.28 29.46,-124.23 29.46,-203.87 0,-79.64 -9.82,-147.86 -29.46,-204.66 -19.65,-56.81 -46.19,-102.99 -79.64,-138.57 -33.44,-35.57 -72.2,-61.58 -116.27,-78.04 -44.07,-16.46 -91.05,-24.69 -140.95,-24.69zm0 828.22l-47.78 0 0 -764.51 47.78 0c39.28,0 77.25,6.37 113.88,19.11 36.63,12.74 68.75,33.98 96.36,63.71 27.61,29.73 49.91,69.02 66.9,117.86 16.99,48.84 25.48,109.37 25.48,181.57 0,71.14 -8.49,131.14 -25.48,179.98 -16.99,48.84 -39.29,88.13 -66.9,117.86 -27.61,29.73 -59.72,51.23 -96.36,64.51 -36.63,13.27 -74.59,19.91 -113.88,19.91z"/>
  <polygon id="9" class="fil2" points="6844.62,11254.15 6844.62,11190.44 6366.8,11190.44 6366.8,12305.35 6844.62,12305.35 6844.62,12241.64 6430.51,12241.64 6430.51,11779.75 6749.06,11779.75 6749.06,11716.04 6430.51,11716.04 6430.51,11254.15 "/>
  <polygon id="10" class="fil2" points="6908.33,12305.35 6972.04,12305.35 6972.04,11349.72 7306.51,12305.35 7386.15,12305.35 7386.15,11190.44 7322.44,11190.44 7322.44,12157.23 6983.19,11190.44 6908.33,11190.44 "/>
  <path id="11" class="fil2" d="M7545.42 12241.64l0 -987.49 106.71 0c47.78,0 88.13,9.03 121.04,27.08 32.92,18.05 59.73,46.46 80.43,85.21 20.7,38.76 35.57,89.46 44.6,152.1 9.03,62.65 13.54,139.1 13.54,229.35 0,89.19 -4.78,165.11 -14.33,227.76 -9.56,62.65 -24.69,113.61 -45.39,152.9 -20.7,39.29 -47.25,67.95 -79.64,86 -32.39,18.05 -72.47,27.08 -120.25,27.08l-106.71 0zm127.42 -1051.2l-191.13 0 0 1114.91 191.13 0c52.03,0 97.16,-10.88 135.38,-32.65 38.23,-21.77 69.81,-55.48 94.77,-101.14 24.95,-45.66 43.27,-103.53 54.95,-173.61 11.68,-70.08 17.52,-153.43 17.52,-250.06 0,-96.62 -5.84,-179.97 -17.52,-250.06 -11.68,-70.08 -30,-127.95 -54.95,-173.61 -24.95,-45.66 -56.54,-79.37 -94.77,-101.14 -38.22,-21.77 -83.35,-32.65 -135.38,-32.65z"/>
  <polygon id="12" class="fil2" points="8532.91,11254.15 8532.91,11190.44 8055.09,11190.44 8055.09,12305.35 8532.91,12305.35 8532.91,12241.64 8118.8,12241.64 8118.8,11779.75 8437.34,11779.75 8437.34,11716.04 8118.8,11716.04 8118.8,11254.15 "/>
  <polygon id="13" class="fil2" points="9058.51,11190.44 8580.69,11190.44 8580.69,11254.15 8787.74,11254.15 8787.74,12305.35 8851.45,12305.35 8851.45,11254.15 9058.51,11254.15 "/>
  <polygon id="14" class="fil2" points="9615.96,11254.15 9615.96,11190.44 9138.15,11190.44 9138.15,12305.35 9615.96,12305.35 9615.96,12241.64 9201.85,12241.64 9201.85,11779.75 9520.4,11779.75 9520.4,11716.04 9201.85,11716.04 9201.85,11254.15 "/>
  <polygon id="15" class="fil2" points="9743.38,12305.35 9743.38,11776.56 10119.26,12305.35 10200.49,12305.35 9802.31,11747.89 10200.49,11190.44 10119.26,11190.44 9743.38,11719.23 9743.38,11190.44 9679.67,11190.44 9679.67,12305.35 "/>
  <path id="16" class="fil2" d="M10710.17 12026.62c0,76.45 -16.46,134.06 -49.38,172.81 -32.91,38.76 -78.57,58.13 -136.97,58.13 -70.08,0 -120.25,-23.89 -150.51,-71.67 -30.26,-47.78 -45.39,-124.76 -45.39,-230.95l-63.71 0c0,61.59 5.31,115.48 15.93,161.66 10.62,46.19 26.28,84.41 46.98,114.67 20.7,30.26 47.25,52.83 79.64,67.69 32.39,14.86 69.81,22.3 112.29,22.3 40.35,0 76.18,-6.63 107.51,-19.91 31.32,-13.27 57.87,-32.65 79.64,-58.14 21.77,-25.48 38.49,-56.54 50.17,-93.17 11.68,-36.63 17.52,-77.78 17.52,-123.44 0,-40.35 -7.44,-75.92 -22.3,-106.71 -14.86,-30.79 -34.25,-58.13 -58.13,-82.02 -23.89,-23.89 -50.7,-45.13 -80.43,-63.71 -29.73,-18.58 -59.99,-36.37 -90.79,-53.35 -25.48,-14.87 -49.9,-30.26 -73.27,-46.19 -23.36,-15.93 -44.06,-33.98 -62.11,-54.15 -18.05,-20.18 -32.39,-42.47 -43,-66.89 -10.62,-24.42 -15.93,-52.56 -15.93,-84.42 0,-74.32 16.46,-131.4 49.37,-171.22 32.91,-39.82 79.1,-59.73 138.57,-59.73 69.02,0 118.66,23.89 148.92,71.67 30.26,47.78 45.39,124.76 45.39,230.94l63.71 0c0,-61.58 -5.31,-115.47 -15.93,-161.66 -10.62,-46.19 -26.28,-84.42 -46.98,-114.68 -20.7,-30.26 -47.25,-52.83 -79.64,-67.69 -32.39,-14.87 -69.81,-22.3 -112.29,-22.3 -40.35,0 -76.19,6.64 -107.51,19.91 -31.32,13.27 -57.87,32.65 -79.64,58.13 -21.77,25.48 -38.49,56.28 -50.17,92.38 -11.68,36.1 -17.52,77.51 -17.52,124.23 0,41.41 6.63,77.78 19.91,109.1 13.27,31.32 30.53,59.2 51.76,83.62 21.24,24.42 45.66,45.92 73.27,64.5 27.61,18.58 55.74,35.84 84.41,51.76 26.55,14.87 53.09,30.26 79.64,46.19 26.55,15.93 49.9,33.71 70.08,53.35 20.18,19.65 36.37,41.41 48.58,65.3 12.21,23.89 18.32,51.76 18.32,83.62z"/>
  <polygon id="17" class="fil2" points="10853.51,12305.35 10917.22,12305.35 10917.22,11190.44 10853.51,11190.44 "/>
  <polygon class="fil2" points="1880.09,13850.85 1880.09,13406.48 2139.7,13850.85 2346.76,13850.85 2037.77,13293.4 2346.76,12735.94 2139.7,12735.94 1880.09,13180.32 1880.09,12735.94 1688.96,12735.94 1688.96,13850.85 "/>
  <polygon id="1" class="fil2" points="3031.63,12927.07 3033.22,12735.94 2426.39,12735.94 2426.39,13850.85 3031.63,13850.85 3033.22,13658.13 2617.52,13659.73 2619.11,13388.96 2936.06,13388.96 2937.66,13197.84 2617.52,13197.84 2619.11,12928.67 "/>
  <path id="2" class="fil2" d="M3302.39 13850.85l0 -810.69 20.7 0 200.68 810.69 194.31 0 200.68 -810.69 20.7 0 0 810.69 191.13 0 0 -1114.91 -315.36 0c-6.37,30.79 -14.33,64.77 -23.89,101.93 -9.56,37.16 -19.65,76.45 -30.26,117.86 -10.61,41.41 -21.5,83.09 -32.65,125.03 -11.15,41.94 -22.03,83.09 -32.65,123.44 -24.42,93.44 -49.37,189 -74.86,286.69l-195.9 -754.95 -313.77 0 0 1114.91 191.13 0z"/>
  <polygon id="3" class="fil2" points="4226.17,13850.85 4417.3,13850.85 4417.3,12735.94 4226.17,12735.94 "/>
  <path id="4" class="fil2" d="M4703.99 13850.85l0 -222.98 28.67 0c12.74,0 25.22,-1.06 37.43,-3.18 12.21,-2.12 24.16,-5.31 35.84,-9.56l108.3 235.72 203.87 0 -143.34 -301.02c43.53,-33.98 78.31,-80.97 104.32,-140.96 26.01,-59.99 39.02,-135.65 39.02,-226.96 0,-79.64 -9.82,-147.86 -29.46,-204.66 -19.65,-56.81 -46.19,-102.99 -79.64,-138.57 -33.44,-35.57 -72.47,-61.58 -117.06,-78.04 -44.6,-16.46 -91.32,-24.69 -140.16,-24.69l-238.91 0 0 1114.91 191.13 0zm0 -925.37l47.78 0c22.3,0 43.8,4.51 64.5,13.54 20.7,9.03 39.29,23.36 55.75,43 16.46,19.65 29.73,45.66 39.82,78.04 10.09,32.39 15.13,73 15.13,121.84 0,47.78 -5.04,87.87 -15.13,120.25 -10.09,32.38 -23.36,58.66 -39.82,78.84 -16.46,20.18 -35.04,34.51 -55.75,43 -20.7,8.49 -42.21,12.74 -64.5,12.74l-47.78 0 0 -511.26z"/>
  <polygon id="5" class="fil2" points="5197.74,13850.85 5388.86,13850.85 5388.86,12735.94 5197.74,12735.94 "/>
  <path id="6" class="fil2" d="M5723.34 12735.94l-238.91 0 0 1114.91 192.72 0 -1.59 -222.98 47.78 0c49.9,0 97.15,-8.49 141.75,-25.48 44.6,-16.99 83.62,-43.27 117.07,-78.84 33.45,-35.57 59.99,-81.5 79.64,-137.77 19.64,-56.28 29.47,-124.23 29.47,-203.87 0,-79.64 -9.83,-147.86 -29.47,-204.66 -19.64,-56.81 -46.46,-102.99 -80.43,-138.57 -33.98,-35.57 -73,-61.58 -117.06,-78.04 -44.07,-16.46 -91.05,-24.69 -140.95,-24.69zm1.59 699.21l-47.78 0 0 -508.08 46.19 -1.59c22.3,0 43.8,4.51 64.5,13.54 20.7,9.03 39.29,23.36 55.75,43 16.46,19.65 29.73,45.66 39.82,78.04 10.09,32.39 15.13,73 15.13,121.84 0,46.72 -4.78,86.54 -14.33,119.46 -9.56,32.91 -22.83,59.2 -39.82,78.84 -16.99,19.65 -35.84,33.98 -56.54,43 -20.7,9.03 -41.68,13.01 -62.91,11.95z"/>
  <path id="7" class="fil2" d="M6280.79 13850.85l28.67 -159.27 275.54 0 30.26 159.27 191.13 0 -191.13 -1114.91 -334.47 0 -191.13 1114.91 191.13 0zm58.93 -350.4l100.34 -565.41 15.93 0 100.34 565.41 -216.61 0z"/>
  <polygon id="8" class="fil2" points="6870.1,13850.85 7061.22,13850.85 7061.22,13173.95 7276.24,13850.85 7475.33,13850.85 7475.33,12735.94 7284.2,12735.94 7284.2,13419.22 7066,12735.94 6870.1,12735.94 "/>
  <path id="9" class="fil2" d="M8160.2 13659.73l0 -732.65 62.11 0c32.92,0 60.79,6.11 83.62,18.32 22.83,12.21 41.14,32.39 54.95,60.52 13.8,28.14 23.62,65.57 29.46,112.29 5.84,46.72 8.76,105.12 8.76,175.2 0,69.02 -2.92,126.89 -8.76,173.61 -5.84,46.72 -15.93,84.41 -30.26,113.08 -14.33,28.67 -32.65,49.11 -54.95,61.32 -22.3,12.21 -49.9,18.32 -82.82,18.32l-62.11 0zm63.71 -923.78l-254.84 0 0 1114.91 254.84 0c57.34,0 108.57,-7.97 153.7,-23.89 45.13,-15.93 83.35,-44.6 114.67,-86 31.32,-41.41 55.48,-98.22 72.47,-170.42 16.99,-72.2 25.49,-164.58 25.49,-277.14 0,-112.55 -8.5,-204.93 -25.49,-277.13 -16.99,-72.2 -41.14,-129.01 -72.47,-170.42 -31.32,-41.41 -69.55,-70.08 -114.67,-86.01 -45.13,-15.93 -96.36,-23.89 -153.7,-23.89z"/>
  <path id="10" class="fil2" d="M8972.49 13675.65c-21.24,0 -39.82,-7.17 -55.75,-21.5 -15.93,-14.33 -29.2,-36.63 -39.82,-66.89 -10.62,-30.26 -18.58,-69.81 -23.89,-118.66 -5.31,-48.84 -7.96,-107.24 -7.96,-175.2 0,-69.02 2.65,-127.95 7.96,-176.79 5.31,-48.84 13.01,-88.39 23.09,-118.66 10.09,-30.26 23.1,-52.29 39.02,-66.1 15.93,-13.8 35.04,-20.7 57.34,-20.7 21.23,0 39.82,6.9 55.74,20.7 15.93,13.81 29.2,35.84 39.82,66.1 10.62,30.26 18.58,69.82 23.89,118.66 5.31,48.84 7.97,107.78 7.97,176.79 0,67.96 -2.66,126.36 -7.97,175.2 -5.31,48.84 -13.27,88.4 -23.89,118.66 -10.62,30.26 -23.89,52.56 -39.82,66.89 -15.93,14.33 -34.51,21.5 -55.74,21.5zm0 -955.63c-54.16,0 -101.14,9.29 -140.96,27.87 -39.82,18.58 -72.73,50.17 -98.75,94.77 -26.02,44.6 -45.66,103.53 -58.93,176.79 -13.27,73.27 -19.91,164.58 -19.91,273.95 0,109.37 6.63,200.68 19.91,273.95 13.27,73.27 32.91,132.2 58.93,176.79 26.02,44.6 58.93,76.19 98.75,94.77 39.82,18.58 86.8,27.87 140.96,27.87 53.09,0 99.54,-9.29 139.36,-27.87 39.82,-18.58 73,-50.17 99.55,-94.77 26.55,-44.6 46.46,-103.53 59.73,-176.79 13.27,-73.27 19.91,-164.58 19.91,-273.95 0,-109.37 -6.64,-200.68 -19.91,-273.95 -13.27,-73.27 -33.18,-132.2 -59.73,-176.79 -26.55,-44.6 -59.72,-76.18 -99.55,-94.77 -39.82,-18.58 -86.27,-27.87 -139.36,-27.87z"/>
  <polygon id="11" class="fil2" points="9561.8,13850.85 9561.8,13406.48 9821.41,13850.85 10028.46,13850.85 9719.48,13293.4 10028.46,12735.94 9821.41,12735.94 9561.8,13180.32 9561.8,12735.94 9370.67,12735.94 9370.67,13850.85 "/>
  <path id="12" class="fil2" d="M10522.2 12735.94l0 581.35c0,67.96 -2.12,124.76 -6.37,170.42 -4.25,45.66 -10.62,82.56 -19.11,110.69 -8.49,28.14 -19.91,48.05 -34.24,59.73 -14.33,11.68 -31.59,17.52 -51.76,17.52 -20.18,0 -37.43,-5.84 -51.77,-17.52 -14.33,-11.68 -25.75,-31.59 -34.24,-59.73 -8.49,-28.14 -14.86,-65.04 -19.11,-110.69 -4.25,-45.66 -6.37,-102.46 -6.37,-170.42l0 -581.35 -191.13 0 0 581.35c0,109.37 5.84,199.36 17.52,269.97 11.68,70.61 30,126.62 54.95,168.03 24.95,41.41 56.54,70.35 94.77,86.81 38.23,16.46 83.35,24.69 135.38,24.69 53.09,0 98.48,-8.23 136.18,-24.69 37.69,-16.46 68.75,-45.39 93.17,-86.81 24.42,-41.41 42.74,-97.42 54.95,-168.03 12.21,-70.61 18.32,-160.6 18.32,-269.97l0 -581.35 -191.13 0z"/>
  <path id="13" class="fil2" d="M11000.02 13850.85l0 -810.69 20.7 0 200.68 810.69 194.31 0 200.68 -810.69 20.7 0 0 810.69 191.13 0 0 -1114.91 -315.36 0c-6.37,30.79 -14.33,64.77 -23.89,101.93 -9.56,37.16 -19.65,76.45 -30.26,117.86 -10.61,41.41 -21.5,83.09 -32.65,125.03 -11.15,41.94 -22.03,83.09 -32.65,123.44 -24.42,93.44 -49.37,189 -74.86,286.69l-195.9 -754.95 -313.77 0 0 1114.91 191.13 0z"/>
  <polygon id="14" class="fil2" points="12529.04,12927.07 12530.63,12735.94 11923.8,12735.94 11923.8,13850.85 12529.04,13850.85 12530.63,13658.13 12114.93,13659.73 12116.52,13388.96 12433.47,13388.96 12435.07,13197.84 12114.93,13197.84 12116.52,12928.67 "/>
  <polygon id="15" class="fil2" points="12608.67,13850.85 12799.8,13850.85 12799.8,13173.95 13014.82,13850.85 13213.91,13850.85 13213.91,12735.94 13022.78,12735.94 13022.78,13419.22 12804.58,12735.94 12608.67,12735.94 "/>
  <path class="fil3" style="mask:url(#id0)" d="M14619 11599.2l1323.63 765.19c74.82,43.25 196.13,43.26 270.95,0.01l1323.62 -765.11c74.82,-43.25 74.8,-113.34 -0.04,-156.55l-1322.47 -763.55c-74.84,-43.21 -196.21,-43.25 -271.08,-0.09l-1324.52 763.63c-74.87,43.16 -74.91,113.22 -0.09,156.48z"/>
  <path class="fil4" style="mask:url(#id2)" d="M18573.92 12996.99l2046.93 1183.32c115.71,66.89 303.31,66.9 419.02,0.01l2046.91 -1183.2c115.71,-66.88 115.69,-175.28 -0.06,-242.11l-2045.13 -1180.8c-115.74,-66.83 -303.43,-66.88 -419.22,-0.13l-2048.3 1180.92c-115.79,66.75 -115.85,175.09 -0.14,241.98z"/>
  <path class="fil5" style="mask:url(#id4)" d="M20316.26 9679.68l1375.99 734.03c77.78,41.49 203.89,41.49 281.67,0l1375.98 -733.95c77.78,-41.49 77.76,-108.72 -0.04,-150.18l-1374.79 -732.46c-77.8,-41.45 -203.98,-41.49 -281.81,-0.08l-1376.91 732.53c-77.83,41.41 -77.88,108.61 -0.09,150.1z"/>
  <path class="fil6" style="mask:url(#id6)" d="M17368.42 8947.65l881.32 509.49c49.82,28.8 130.59,28.8 180.41,0l881.31 -509.43c49.82,-28.8 49.81,-75.47 -0.03,-104.24l-880.54 -508.4c-49.84,-28.77 -130.65,-28.79 -180.5,-0.05l-881.91 508.45c-49.85,28.74 -49.88,75.39 -0.06,104.19z"/>
  <path class="fil7" d="M17125.24 5778.71c-17.15,-3.9 -35.61,-2.6 -53.16,5.07 -3.12,1.3 -6.11,2.86 -9.1,4.54l-33.92 19.49 -3051.01 1762.04c-58.74,33.92 -94.88,96.56 -94.88,164.27l0 2370.4c0,28.85 10.4,54.06 27.03,73.43 11.31,13.25 25.74,23.65 41.59,30.54l-90.32 -30.41c-7.67,-1.69 -15.08,-4.29 -22.22,-7.54l-0.13 0c-19.11,-8.71 -35.74,-22.49 -47.57,-40.03 -11.83,-17.54 -18.97,-38.99 -18.97,-62.9l0 -2370.27c0,-67.84 36.26,-130.48 94.87,-164.4l3085.06 -1781.41c24.95,-14.42 52.63,-14.95 76.03,-5.46l1.04 0.39 95.65 32.23z"/>
  <path class="fil8" d="M17193.99 5863.96l0 2422.77c0,63.16 -33.66,121.38 -88.38,152.97l-3052.96 1762.69c-33.01,19.1 -69.53,19.36 -100.33,6.24l-0.52 -0.13c-15.86,-6.89 -30.28,-17.29 -41.59,-30.54 -16.63,-19.37 -27.03,-44.58 -27.03,-73.43l0 -2370.4c0,-67.71 36.13,-130.35 94.88,-164.27l3051.01 -1762.04 33.92 -19.49c2.99,-1.69 5.98,-3.25 9.1,-4.54 17.55,-7.67 36,-8.97 53.16,-5.07l17.55 5.98c29.37,13.26 51.2,42.5 51.2,79.28z"/>
  <polygon class="fil9" points="14379.67,6955.59 14710.76,6764.44 14711.6,9440 14380.56,9631.13 "/>
  <polygon class="fil10" points="15042.05,5791.27 15373.12,5606.01 15373.54,9058.28 15042.5,9249.42 "/>
  <polygon class="fil11" points="15704.33,7337.21 16035.4,7146.08 16035.82,8675.44 15704.77,8866.57 "/>
  <polygon class="fil12" points="16366.27,7528.68 16697.34,7337.54 16697.76,8293.73 16366.72,8484.86 "/>
  <polygon class="fil13" points="21617.91,5768.32 21617.91,6195.79 19896.2,5770.35 18605.84,5024.04 "/>
  <polygon class="fil14" points="19035.27,9496.04 19035.81,4277.78 21617.82,2787.07 21617.82,8005.25 "/>
  <polygon class="fil15" points="19465.97,9993.43 19466.51,4775.17 22048.52,3284.46 22048.52,8502.64 "/>
  <polygon class="fil16" points="22909.11,6514.79 21617.91,6195.79 21617.91,5768.32 "/>
  <polygon class="fil17" points="20111.34,10366.05 20111.88,5147.8 22693.88,3657.09 22693.88,8875.27 "/>
  <g id="_1993798263168">
   <polygon class="fil18" points="20734.77,5451.19 20717.87,5421.92 21886.28,4747.34 21903.17,4776.61 "/>
  </g>
  <g id="_1993798262544">
   <polygon class="fil18" points="20442.58,5957.07 20425.68,5927.81 22470.41,4746.61 22487.31,4775.87 "/>
  </g>
  <g id="_1993798264176">
   <polygon class="fil18" points="20442.58,6294.35 20425.68,6265.1 22470.41,5083.9 22487.31,5113.15 "/>
  </g>
  <g id="_1993798266720">
   <polygon class="fil18" points="20442.58,6633.11 20425.68,6603.86 22470.41,5422.65 22487.31,5451.91 "/>
  </g>
  <g id="_1993798264608">
   <polygon class="fil18" points="20442.58,6968.93 20425.68,6939.67 22470.41,5758.47 22487.31,5787.73 "/>
  </g>
  <g id="_1993798268448">
   <polygon class="fil18" points="20442.58,7306.22 20425.68,7276.96 22470.41,6095.76 22487.31,6125.01 "/>
  </g>
  <g id="_1993798271040">
   <polygon class="fil18" points="20089.4,5078.57 20072.5,5049.3 21240.91,4374.71 21257.8,4403.99 "/>
  </g>
  <g id="_1993798272912">
   <polygon class="fil18" points="19658.7,4581.17 19641.8,4551.9 20810.21,3877.33 20827.1,3906.6 "/>
  </g>
  <polygon class="fil8" points="22909.11,6514.79 22909.11,8999.53 19896.2,10738.81 19896.2,5770.35 21617.91,6195.79 "/>
  <polygon class="fil19" points="20954.27,7838.45 21396.37,7559.18 21617.4,7686.78 22281.36,7303.97 22281.36,8069.6 20954.27,8835.21 "/>
  <polygon class="fil20" points="21506.85,7622.96 22280.41,7175.78 22280.41,7303.97 21617.4,7686.78 "/>
  <path class="fil21" d="M22555.98 2233.97l515.39 94.02c0,0 3.95,228.7 -102.52,492.88 -106.46,264.18 -245.91,359.14 -245.91,359.14l-522.01 -168.68c0,0 200.12,-170.75 263.21,-363.96 63.09,-193.21 91.83,-413.41 91.83,-413.41z"/>
  <g id="_1993798279056">
   <polygon class="fil22" points="22919.25,2525.88 22626.17,2454.28 22630.2,2437.86 22923.28,2509.47 "/>
  </g>
  <g id="_1993798281216">
   <polygon class="fil22" points="22878.48,2682.31 22585.42,2610.69 22589.44,2594.27 22882.51,2665.89 "/>
  </g>
  <g id="_1993798281888">
   <polygon class="fil22" points="22818.93,2825.16 22525.85,2753.55 22529.88,2737.13 22822.96,2808.75 "/>
  </g>
  <g id="_1993798282608">
   <polygon class="fil22" points="22734.58,2976.12 22441.51,2904.5 22445.53,2888.08 22738.61,2959.7 "/>
  </g>
  <path class="fil23" d="M20919.66 2199.71l295.09 -192.39c0,0 107.66,109.83 177.83,288.02 70.17,178.19 46,289.02 46,289.02l-332.82 159c0,0 18.75,-175.88 -39.78,-299.38 -58.53,-123.49 -146.31,-244.28 -146.31,-244.28z"/>
  <g id="_1993798287552">
   <polygon class="fil18" points="21057.16,2277.2 21048.78,2262.54 21224.97,2162 21233.35,2176.67 "/>
  </g>
  <g id="_1993798286400">
   <polygon class="fil18" points="21109.58,2372.41 21101.2,2357.74 21277.39,2257.21 21285.77,2271.88 "/>
  </g>
  <g id="_1993798288272">
   <polygon class="fil18" points="21146.56,2469.69 21138.18,2455.03 21314.36,2354.48 21322.75,2369.15 "/>
  </g>
  <g id="_1993798285680">
   <polygon class="fil18" points="21175.17,2582.38 21166.79,2567.71 21342.98,2467.18 21351.36,2481.85 "/>
  </g>
  <path class="fil24" d="M18129.2 3725.77l-385.21 355.08c0,0 118.98,195.35 350.22,361.64 231.24,166.29 399.85,171.96 399.85,171.96l350.88 -421.7c0,0 -260.41,-37.25 -417.05,-166.77 -156.64,-129.52 -298.69,-300.21 -298.69,-300.21z"/>
  <g id="_1993798306704">
   <polygon class="fil18" points="17978.37,4166.72 17966.21,4154.98 18175.54,3937.74 18187.7,3949.47 "/>
  </g>
  <g id="_1993798305312">
   <polygon class="fil18" points="18096.46,4277.08 18084.3,4265.35 18293.63,4048.11 18305.79,4059.84 "/>
  </g>
  <g id="_1993798305984">
   <polygon class="fil18" points="18223.19,4365.94 18211.03,4354.2 18420.36,4136.96 18432.53,4148.69 "/>
  </g>
  <g id="_1993798304976">
   <polygon class="fil18" points="18375.19,4448.38 18363.03,4436.65 18572.37,4219.4 18584.53,4231.13 "/>
  </g>
  <path class="fil25" d="M19493.54 2821.7l-352.23 -4.75c0,0 -32.23,150.37 3.77,338.47 36.01,188.1 115.71,268.82 115.71,268.82l366.27 -43.65c0,0 -109.91,-138.59 -126.5,-274.23 -16.59,-135.65 -7.02,-284.66 -7.02,-284.66z"/>
  <g id="_1993798306656">
   <polygon class="fil22" points="19216.15,2970 19215.39,2953.12 19418.02,2943.85 19418.78,2960.73 "/>
  </g>
  <g id="_1993798309632">
   <polygon class="fil22" points="19222.78,3078.48 19222.02,3061.61 19424.66,3052.33 19425.42,3069.21 "/>
  </g>
  <g id="_1993798307568">
   <polygon class="fil22" points="19243.55,3180.46 19242.79,3163.58 19445.43,3154.3 19446.19,3171.18 "/>
  </g>
  <g id="_1993798307472">
   <polygon class="fil22" points="19279.65,3290.98 19278.9,3274.1 19481.53,3264.83 19482.29,3281.71 "/>
  </g>
  <polygon class="fil26" points="19896.2,5770.35 19896.2,10738.81 18605.17,9993.53 18605.17,5023.88 18605.84,5024.04 "/>
  <path class="fil8" d="M18807.46 7047.61l0 148.71c0,28.77 15.35,55.35 40.26,69.74l785.11 453.23c26.96,15.56 60.66,-3.89 60.66,-35.02l0 -139.32c0,-28.89 -15.42,-55.58 -40.44,-70.01l-793.37 -457.49c-23.21,-13.39 -52.21,3.37 -52.21,30.16z"/>
  <path class="fil8" d="M18807.46 7459.74l0 148.71c0,28.76 15.35,55.35 40.26,69.73l785.11 453.23c26.96,15.56 60.66,-3.89 60.66,-35.02l0 -139.32c0,-28.89 -15.42,-55.58 -40.44,-70.01l-793.37 -457.49c-23.21,-13.39 -52.21,3.37 -52.21,30.16z"/>
  <path class="fil8" d="M18807.46 7916.31l0 148.71c0,28.77 15.35,55.35 40.26,69.74l785.11 453.23c26.96,15.56 60.66,-3.89 60.66,-35.02l0 -139.32c0,-28.89 -15.42,-55.58 -40.44,-70.01l-793.37 -457.5c-23.21,-13.39 -52.21,3.37 -52.21,30.17z"/>
  <polygon class="fil27" points="23771.03,8707.63 24772.47,8129.45 25773.88,8707.02 24772.47,9285.82 "/>
  <polygon class="fil28" points="23771.03,8707.63 23771.03,8996.1 24772.47,9574.29 24772.47,9285.82 "/>
  <polygon class="fil29" points="24772.47,9285.82 24772.47,9574.29 25773.88,8995.49 25773.88,8707.02 "/>
  <polygon class="fil30" points="23769.98,8272.7 24771.43,7694.52 25772.84,8272.09 24771.43,8850.89 "/>
  <polygon class="fil31" points="23769.98,8272.7 23769.98,8561.17 24771.43,9139.37 24771.43,8850.89 "/>
  <polygon class="fil32" points="24771.43,8850.89 24771.43,9139.37 25772.84,8560.56 25772.84,8272.09 "/>
  <polygon class="fil33" points="23769.95,7839.4 24771.39,7261.23 25772.8,7838.79 24771.39,8417.6 "/>
  <polygon class="fil34" points="23769.95,7839.4 23769.95,8127.87 24771.39,8706.07 24771.39,8417.6 "/>
  <polygon class="fil35" points="24771.39,8417.6 24771.39,8706.07 25772.8,8127.26 25772.8,7838.79 "/>
  <polygon class="fil36" points="20326.84,12342.89 23144.09,13969.54 24905.03,12952.87 23144.09,11936.18 23144.09,11529.54 22439.84,11122.93 "/>
  <polygon class="fil37" points="23144.09,11733.8 25081.13,12851.21 24905.03,12952.87 23144.09,11936.18 "/>
  <g id="_1993798322736">
   <polygon class="fil38" points="24084.9,12863.39 24067.41,12834.48 24755.64,12418.55 24773.13,12447.46 "/>
  </g>
  <g id="_1993797003760">
   <polygon class="fil39" points="23012,12655.59 22995.03,12626.35 24045.38,12017.32 24062.34,12046.56 "/>
  </g>
  <g id="_1993797004672">
   <polygon class="fil40" points="23364.34,11634.13 23346.92,11605.16 23875.2,11287.45 23892.62,11316.42 "/>
  </g>
  <g id="_1993797007888">
   <polygon class="fil41" points="22483.96,11354.01 22466.67,11324.97 23170.89,10905.09 23188.18,10934.13 "/>
  </g>
  <path class="fil42" style="mask:url(#id8)" d="M24612.23 12377.16l257.54 148.69c21.83,12.6 48.72,12.63 70.57,0.06l268.05 -154.12c22.29,-12.82 22.29,-44.98 0,-57.79l-268.33 -154.29c-21.68,-12.47 -48.36,-12.44 -70.02,0.06l-257.81 148.85c-26.37,15.23 -26.37,53.3 0,68.53z"/>
  <path class="fil43" style="mask:url(#id10)" d="M25137.43 12077.8l257.53 148.69c21.83,12.6 48.72,12.63 70.58,0.06l268.05 -154.12c22.29,-12.82 22.29,-44.98 0,-57.79l-268.34 -154.29c-21.68,-12.47 -48.35,-12.44 -70.01,0.06l-257.81 148.85c-26.38,15.23 -26.38,53.3 0,68.54z"/>
  <path class="fil44" style="mask:url(#id12)" d="M25670.1 11767.32l257.53 148.69c21.83,12.6 48.72,12.63 70.57,0.06l268.06 -154.12c22.29,-12.82 22.29,-44.98 0,-57.79l-268.34 -154.28c-21.68,-12.47 -48.35,-12.44 -70.01,0.06l-257.81 148.85c-26.38,15.23 -26.38,53.3 0,68.54z"/>
  <path class="fil45" style="mask:url(#id14)" d="M23909.37 11980.52l257.53 148.69c21.83,12.61 48.72,12.63 70.58,0.07l268.06 -154.13c22.29,-12.81 22.29,-44.97 0,-57.79l-268.34 -154.29c-21.68,-12.46 -48.35,-12.44 -70.01,0.06l-257.81 148.85c-26.38,15.23 -26.38,53.3 0,68.53z"/>
  <path class="fil46" style="mask:url(#id16)" d="M24434.56 11681.16l257.53 148.69c21.83,12.6 48.72,12.63 70.57,0.06l268.06 -154.13c22.29,-12.81 22.29,-44.97 0,-57.79l-268.34 -154.29c-21.68,-12.46 -48.36,-12.44 -70.01,0.06l-257.81 148.85c-26.38,15.23 -26.38,53.3 0,68.53z"/>
  <path class="fil47" style="mask:url(#id18)" d="M23744.17 11253.27l257.53 148.69c21.83,12.61 48.72,12.63 70.57,0.07l268.06 -154.13c22.29,-12.81 22.29,-44.97 0,-57.79l-268.34 -154.29c-21.68,-12.46 -48.35,-12.44 -70.02,0.06l-257.81 148.85c-26.38,15.23 -26.38,53.3 0,68.53z"/>
  <path class="fil48" style="mask:url(#id20)" d="M24269.37 10953.92l257.53 148.69c21.83,12.6 48.72,12.63 70.58,0.06l268.06 -154.13c22.29,-12.81 22.29,-44.97 0,-57.79l-268.34 -154.29c-21.68,-12.46 -48.35,-12.44 -70.01,0.06l-257.81 148.85c-26.38,15.23 -26.38,53.3 0,68.53z"/>
  <path class="fil49" style="mask:url(#id22)" d="M24802.04 10643.43l257.53 148.69c21.83,12.6 48.72,12.63 70.57,0.06l268.06 -154.13c22.28,-12.82 22.28,-44.97 0,-57.79l-268.34 -154.29c-21.68,-12.46 -48.35,-12.44 -70.01,0.06l-257.82 148.85c-26.38,15.23 -26.38,53.3 0,68.53z"/>
  <path class="fil50" style="mask:url(#id24)" d="M25327.24 10344.07l257.54 148.69c21.83,12.6 48.72,12.63 70.57,0.06l268.06 -154.13c22.29,-12.82 22.29,-44.97 0,-57.79l-268.34 -154.29c-21.68,-12.47 -48.35,-12.44 -70.01,0.06l-257.82 148.85c-26.37,15.23 -26.37,53.3 0,68.53z"/>
  <path class="fil51" style="mask:url(#id26)" d="M23024.53 10862.13l257.53 148.69c21.83,12.6 48.72,12.63 70.57,0.06l268.06 -154.13c22.29,-12.81 22.29,-44.97 0,-57.79l-268.34 -154.29c-21.68,-12.46 -48.35,-12.44 -70.01,0.06l-257.81 148.85c-26.38,15.23 -26.38,53.3 0,68.53z"/>
  <path class="fil52" style="mask:url(#id28)" d="M23549.73 10562.77l257.53 148.69c21.83,12.6 48.72,12.63 70.58,0.06l268.06 -154.13c22.29,-12.81 22.29,-44.97 0,-57.79l-268.34 -154.29c-21.68,-12.46 -48.35,-12.44 -70.01,0.06l-257.81 148.85c-26.38,15.23 -26.38,53.3 0,68.53z"/>
  <polygon class="fil53" points="20326.84,12342.89 20326.84,12534.47 23144.09,14161.12 23144.09,13969.54 "/>
  <polygon class="fil54" points="23144.09,13969.54 23144.09,14161.12 24905.03,13144.45 24905.03,12952.87 "/>
  <polygon class="fil55" points="25081.13,13042.78 25081.13,12851.21 24905.03,12952.87 24905.03,13144.45 "/>
  <path class="fil56" d="M16834.24 11540.83c0,0 200.18,202.87 163.01,239.09 -37.18,36.23 -297.72,-99.16 -306.04,-165.69 -9.07,-72.45 22.93,-82.45 22.93,-82.45l71.49 -48.91 48.62 57.96z"/>
  <path class="fil56" d="M17069.5 11428.2c0,0 200.18,202.87 163.01,239.09 -37.18,36.23 -297.72,-99.16 -306.05,-165.7 -9.06,-72.45 22.93,-82.45 22.93,-82.45l71.49 -48.9 48.62 57.96z"/>
  <path class="fil57" d="M16928.67 10486.35l-94.43 1054.48c0,0 -40.04,26.11 -72.92,18.49 -32.89,-7.62 -47.18,-27.55 -47.18,-27.55l41.31 -1046.46 28.76 -94.67 144.47 95.7z"/>
  <path class="fil58" d="M17163.93 10373.72l-94.43 1054.48c0,0 -40.04,26.11 -72.92,18.49 -32.89,-7.62 -47.18,-27.55 -47.18,-27.55l41.31 -1046.46 28.75 -94.66 144.48 95.7z"/>
  <path class="fil59" d="M16628.32 9960.63c0,0 -2.72,117.57 -13.58,223.53 -10.87,105.96 -11.16,290.72 -11.16,290.72 0,0 201.34,35.32 391.53,0 190.19,-35.32 271.7,-100.53 271.7,-100.53l-65.85 -526.48 -108.04 -54.95 -464.6 167.71z"/>
  <path class="fil60" d="M17220.29 8907.3c0,0 524.89,-172.06 575.61,-210.1 50.72,-38.04 210.12,-62.97 217.36,-51.41 7.25,11.56 -101.43,40.54 -108.68,67.71 -7.25,27.17 -19.92,94.25 -68.83,85.16 -48.91,-9.09 -159.39,24.73 -273.51,72.12 -114.11,47.39 -336.19,141.41 -336.19,141.41 0,0 -2.14,-30.13 -5.77,-37.37 -3.63,-7.25 0,-67.52 0,-67.52z"/>
  <path class="fil61" d="M17051.37 8913.82l138 -45.5c0,0 33.55,28.19 50.81,83.89 14.3,46.14 13.04,90.83 13.04,90.83l-91.62 38.29c0,0 -50.02,-8.4 -57.99,-12.48 -7.98,-4.07 -52.24,-155.03 -52.24,-155.03z"/>
  <path class="fil62" d="M16885.18 8858.99c0,0 -201.47,132.42 -191.13,325.32 10.34,192.9 17.63,233.66 -22.7,334.19 -40.32,100.53 -70.42,130.41 -67.6,258.11 2.82,127.7 24.56,184.01 24.56,184.01 0,0 214.88,27.91 395.44,-29.14 180.55,-57.06 202.29,-111.4 202.29,-111.4 0,0 -92.37,-318.59 -72,-409.26 20.37,-90.66 69.28,-174.89 36.68,-256.4 -32.61,-81.51 -86.95,-238.79 -169.81,-252.53 -82.87,-13.73 -135.74,-42.91 -135.74,-42.91z"/>
  <path class="fil63" d="M16629.62 9265.82c-3.04,20.43 27.17,63.04 66.73,109.55 63.91,74.12 151.94,158.02 166.93,175.63 1.74,2.17 3.26,4.12 4.56,6.3 18.04,26.09 5.87,49.34 17.39,83.9 7.18,21.74 14.78,46.73 19.78,63.69 5.43,18.25 23.69,29.34 42.6,26.08 10.87,-1.74 24.78,-5.65 42.6,-13.04 81.07,-32.83 -12.39,-131.5 -12.39,-131.5 0,0 -8.91,-22.83 -53.69,-78.69 -5.65,-6.95 -11.74,-14.56 -18.69,-22.83 -61.08,-72.37 -117.81,-124.98 -144.98,-163.67 -0.21,-0.44 -0.44,-0.65 -0.65,-1.09 -25.87,-38.48 12.61,-80.64 12.61,-80.64l-32.83 -106.72 -71.73 41.3c0,0 -29.99,38.69 -38.25,91.72z"/>
  <path class="fil64" d="M16874.09 8761.74l-5.95 88.41c0,0 2.96,57.06 26.07,96.17 23.12,39.11 88.08,75.66 88.08,75.66 0,0 36.38,-75.64 28.94,-124.54 -7.44,-48.9 -7.31,-43.41 -2.99,-63.56 4.33,-20.15 2.72,-60.13 2.72,-60.13l-86.99 -62.55 -49.89 50.53z"/>
  <path class="fil65" d="M17113.78 8548.84c0,0 22.06,53.77 16.58,140.85 -5.96,94.72 -49.7,159.38 -49.7,159.38 0,0 -128.07,-10.04 -174.55,-84.69 -46.48,-74.65 -11.36,-213.91 -11.36,-213.91l88.43 -59.86 130.6 58.23z"/>
  <path class="fil56" d="M16800.01 8678.5c25.78,55.64 67.74,95.37 106.14,85.93 89.03,-21.99 80.14,-134.86 103.73,-181.85 23.6,-47.17 103.89,-33.7 103.89,-33.7 0,0 -28.95,-174.47 -230.57,-122.11 -27.6,7.07 -49.01,19.19 -65.31,34.4 -56.83,53.69 -49.94,147.88 -17.88,217.32z"/>
  <path class="fil56" d="M16696.64 8676.53c0,0 67.99,40.62 103.38,1.97 -32.06,-69.44 -38.95,-163.64 17.88,-217.32 0,0 -42.86,-23.83 -65.34,6.76 -22.32,30.6 10.77,158.83 -5.77,182.78 -16.72,23.94 -50.14,25.81 -50.14,25.81z"/>
  <path class="fil66" d="M16749.73 8969.38c42.14,-49.15 123.13,-27.12 141.46,34.98 7.2,24.39 8.69,54.11 -5.22,86.57 -36.68,85.59 -64.5,156.23 -64.5,156.23 0,0 -30.99,8.3 -98.36,-31.25 -67.38,-39.54 -74.87,-70.64 -74.87,-70.64 0,0 58.57,-113.11 95.09,-167.45 2.03,-3.02 4.17,-5.82 6.4,-8.43z"/>
  <path class="fil67" d="M16760.47 9321.25c27.17,38.69 83.9,91.29 144.98,163.67 6.95,8.26 13.04,15.87 18.69,22.83l134.32 -118.46 -169.53 -181.71 -129.11 112.59c0.21,0.43 0.44,0.65 0.65,1.09z"/>
  <path class="fil68" d="M16594.19 9464.49l160.84 192.36 112.81 -99.55c-1.3,-2.18 -2.82,-4.13 -4.56,-6.3 -15,-17.61 -103.02,-101.51 -166.93,-175.63l-102.16 89.12z"/>
  <path class="fil69" d="M18594.69 12435.15c0,0 -51.26,164.02 41,155.48 92.27,-8.54 288.74,-114.47 280.2,-155.48 -8.54,-41 -217.55,-4.55 -217.55,-4.55l-66.06 -24.49 -37.59 29.04z"/>
  <path class="fil70" d="M18357.93 12378.65c0,0 -50.76,162.43 40.61,153.97 91.36,-8.46 285.93,-113.36 277.47,-153.97 -8.46,-40.6 -215.44,-4.51 -215.44,-4.51l-65.42 -24.25 -37.23 28.76z"/>
  <path class="fil71" d="M18477.13 11422.66c0,0 51.28,176.35 45.42,281.45 -5.86,105.11 70.4,753.42 70.4,753.42 0,0 8.81,14.67 40.09,12.71 31.29,-1.96 48.9,-16.62 48.9,-16.62 0,0 9.96,-1031.62 -15.65,-1102.33 -25.6,-70.7 -189.16,-39.01 -189.16,-39.01l0 110.38z"/>
  <path class="fil72" d="M18246.89 11384.19c0,0 50.79,174.64 44.98,278.72 -5.81,104.09 69.72,746.11 69.72,746.11 0,0 8.72,14.53 39.7,12.59 30.98,-1.94 48.42,-16.46 48.42,-16.46 0,0 9.86,-1021.62 -15.49,-1091.63 -25.35,-70.02 -187.33,-38.63 -187.33,-38.63l0 109.31z"/>
  <path class="fil73" d="M18799.82 11419.67c0,0 -73.46,-33.68 -129.08,-32.04 -121.8,3.64 -108.65,36.38 -237.73,42.71 -127.19,6.22 -258.03,-81.79 -258.03,-81.79 0.59,-16.66 -32.27,-72.64 -1.53,-182.7 28.63,-102.21 15.84,-139.87 2.93,-190.56 23,-24.4 61.02,-48.93 118.87,-36.73 103.97,21.94 289.48,-33.56 289.48,-33.56l-0.11 -0.12c-64.19,12.79 -140.46,17.13 -220.49,-1.53 -24.52,-5.75 -46.58,-11.5 -66.41,-17.37 -65.35,-19.01 -106.2,-37.9 -131.42,-53.27 0,0 32.5,-2.7 81.43,-6.69 60.55,-4.81 146.2,-11.62 225.88,-17.25 107.72,-7.86 204.41,-13.73 213.21,-10.68 20.53,7.16 55.74,53.39 55.74,53.39l57.26 568.17z"/>
  <path class="fil74" d="M18184.37 9869.13c0,0 -148.8,274.14 -139.99,387.23 8.8,113.1 297.73,163.39 297.73,163.39l-13.18 -291.84 -144.56 -258.79z"/>
  <path class="fil75" d="M18599.79 9427.8c0,0 53.29,79.21 40.31,107.5 -6.37,13.89 51.58,91.95 13.47,118.38 -52.16,36.18 -132.01,31.29 -216.1,-36.18 -84.09,-67.47 -31.29,-189.7 -31.29,-189.7l87.03 -72.36 106.58 72.36z"/>
  <path class="fil76" d="M19025.44 9739.76c0,0 81,-220.76 95.04,-206.82 14.05,13.94 -17.09,84.46 8.01,113.51 25.09,29.05 58.26,42.32 25.54,83.4 -32.72,41.08 -121.59,89.86 -121.59,89.86l-7 -79.95z"/>
  <path class="fil77" d="M18847.58 10290.26c-114.52,-58.44 -157.94,-136.94 -163.22,-147.02 3.4,8.09 25.58,62.66 13.73,89.76 -3.87,8.92 -9.62,16.9 -15.26,24.99 0,0 -0.47,0.71 -1.29,1.88 -0.59,0.71 -1.18,1.53 -1.65,2.23 -0.35,0.59 -0.82,1.18 -1.29,1.88 -11.5,17.02 -20.89,35.79 -11.97,65.95 8.56,28.87 24.64,57.97 41.19,107.48 0.11,0.12 0.11,0.12 0.11,0.12 11.15,33.33 22.53,75.92 31.92,134.01 23.23,144.1 26.17,267.3 26.17,267.3 0,0 -8.33,5.05 -23.47,12.67 -29.92,14.79 -86.48,39.31 -157.94,53.39 -64.19,12.79 -140.46,17.13 -220.49,-1.53 -24.52,-5.75 -46.58,-11.5 -66.41,-17.37 -65.35,-19.01 -106.2,-37.9 -131.42,-53.27 -33.8,-20.42 -39.78,-34.62 -39.78,-34.62 0,0 1.88,-17.37 4.93,-45.41 9.74,-87.77 32.04,-279.62 49.87,-362.7 15.37,-71.58 -2.35,-165.22 -15.02,-264.01 -6.81,-52.34 -12.21,-106.2 -10.45,-158.88 6.34,-197.02 243.48,-204.64 243.48,-204.64 0,0 170.85,-9.04 267.31,120.04 65.13,87.07 124.5,145.74 162.75,160.76 18.42,7.39 31.91,4.46 38.72,-10.09 4.46,-9.62 12.56,-31.33 23.12,-59.02 0.12,-0.12 0.12,-0.12 0.12,-0.23 39.19,-102.56 113,-287.49 170.73,-248.88 73.58,48.93 -91.88,627.77 -214.5,565.23z"/>
  <path class="fil78" d="M18537.21 10659.88c0,0 61.6,-9.77 90.94,-23.47 29.33,-13.68 58.67,-45.96 58.67,-45.96 0,0 -13.93,54.76 -38.87,82.63 -24.94,27.86 -32.27,30.8 -32.27,30.8 0,0 13.58,-46.94 -12.28,-43.27 -25.86,3.67 -66.2,-0.74 -66.2,-0.74z"/>
  <path class="fil79" style="mask:url(#id30)" d="M18707.83 10437.4c-3.4,-3.75 -62.55,-68.99 -100.92,-79.67 -39.66,-11.03 -37.43,-13.96 5.05,-35.2 32.86,-16.43 57.27,-45.88 66.65,-58.56 -11.5,17.02 -20.89,35.79 -11.97,65.95 8.56,28.87 24.64,57.97 41.19,107.48z"/>
  <path class="fil80" style="mask:url(#id32)" d="M18342.07 10561.55c-53.86,45.53 -108.66,98.92 -133.07,146.32 -18.3,35.21 -19.72,67.24 8.45,90.23 10.68,8.68 20.77,18.19 30.28,27.93 19.71,20.18 36.73,41.65 49.98,59.96 -65.35,-19.01 -106.2,-37.9 -131.42,-53.27 -33.8,-20.42 -39.78,-34.62 -39.78,-34.62 0,0 1.88,-17.37 4.93,-45.41 9.74,-87.77 32.04,-279.62 49.87,-362.7 15.37,-71.58 -2.35,-165.22 -15.02,-264.01 0,0 136.23,94.1 99.62,137.99 -36.73,43.89 -63.13,129.78 -26.52,155.83 36.72,25.93 196.54,62.66 102.67,141.75z"/>
  <path class="fil81" style="mask:url(#id34)" d="M18889.24 10063.67c2.93,27.1 -59.85,-20.3 -59.85,-20.3l0 -0.12c18.42,7.39 31.91,4.46 38.72,-10.09 4.46,-9.62 12.56,-31.33 23.12,-59.02 -7.86,20.77 -4.93,62.54 -1.99,89.53z"/>
  <path class="fil82" d="M18584.73 10905.01c0,0 -185.51,55.5 -289.48,33.56 -57.85,-12.21 -95.86,12.32 -118.87,36.73 -0.94,-3.75 -2,-7.74 -2.93,-11.74 -13.73,-57.14 -7.16,-130.83 -7.16,-130.83 25.22,15.37 66.06,34.26 131.42,53.27 19.83,5.87 41.89,11.62 66.41,17.37 80.03,18.66 156.3,14.32 220.49,1.53l0.11 0.12z"/>
  <path class="fil56" d="M18599.79 9427.8c0,0 -74.01,14.51 -40.58,118.81 33.43,104.3 67.11,154.01 15.95,190.68 -51.16,36.67 -26.5,66 -12.53,99.67 31.66,76.34 43.51,200.53 -125.16,187.33 -168.68,-13.2 -313.96,-102.53 -265.97,-226.86 26.71,-69.2 134.94,-99.74 78.32,-150.59 -29.38,-26.39 -29.9,-105.6 -0.07,-189.7 38.66,-109.01 102.27,-181.86 218.53,-164.28 116.26,17.58 131.52,134.94 131.52,134.94z"/>
  <path class="fil83" style="mask:url(#id36)" d="M17832.39 6518.84c0,0 16.76,1042.65 24.4,2022.2 0,0 17.21,-1577.81 24.39,-2022.2l-48.79 0z"/>
  <path class="fil84" style="mask:url(#id38)" d="M18037.35 6375.92c0,99.72 -80.84,180.55 -180.55,180.55 -99.72,0 -180.56,-80.84 -180.56,-180.55 0,-99.72 80.84,-180.56 180.56,-180.56 99.72,0 180.55,80.84 180.55,180.56z"/>
  <path class="fil85" style="mask:url(#id40)" d="M26791.96 7280.09c0,0 16.76,1868.49 24.4,3623.92 0,0 17.22,-2827.54 24.4,-3623.92l-48.79 0z"/>
  <path class="fil86" style="mask:url(#id42)" d="M26996.92 7137.17c0,99.72 -80.84,180.56 -180.56,180.56 -99.72,0 -180.56,-80.84 -180.56,-180.56 0,-99.72 80.84,-180.55 180.56,-180.55 99.72,0 180.56,80.84 180.56,180.55z"/>
  <path class="fil87" style="mask:url(#id44)" d="M17568.91 11487.09c0,0 16.76,1042.65 24.4,2022.21 0,0 17.21,-1577.81 24.39,-2022.21l-48.79 0z"/>
  <path class="fil88" style="mask:url(#id46)" d="M17773.87 11344.17c0,99.72 -80.83,180.56 -180.55,180.56 -99.72,0 -180.56,-80.84 -180.56,-180.56 0,-99.72 80.84,-180.56 180.56,-180.56 99.72,0 180.55,80.84 180.55,180.56z"/>
 </g>
</svg>
